<mxfile host="app.diagrams.net" agent="Mozilla/5.0 (Windows NT 10.0; Win64; x64) AppleWebKit/537.36 (KHTML, like Gecko) Chrome/128.0.0.0 Safari/537.36 Edg/128.0.0.0" version="24.7.14">
  <diagram name="Page-1" id="KdzdTGtM5hmOTt3KC4cZ">
    <mxGraphModel dx="1426" dy="747" grid="1" gridSize="10" guides="1" tooltips="1" connect="1" arrows="1" fold="1" page="1" pageScale="1" pageWidth="850" pageHeight="1100" math="0" shadow="0">
      <root>
        <mxCell id="0" />
        <mxCell id="1" parent="0" />
        <mxCell id="rrpXM7m9zSZtKaKZ5XWd-1" value="" style="rounded=0;whiteSpace=wrap;html=1;" vertex="1" parent="1">
          <mxGeometry x="365" y="30" width="120" height="60" as="geometry" />
        </mxCell>
        <mxCell id="rrpXM7m9zSZtKaKZ5XWd-2" value="MyApp" style="text;html=1;align=center;verticalAlign=middle;whiteSpace=wrap;rounded=0;" vertex="1" parent="1">
          <mxGeometry x="395" y="45" width="60" height="30" as="geometry" />
        </mxCell>
        <mxCell id="rrpXM7m9zSZtKaKZ5XWd-4" value="" style="endArrow=classic;html=1;rounded=0;" edge="1" parent="1">
          <mxGeometry width="50" height="50" relative="1" as="geometry">
            <mxPoint x="426" y="90" as="sourcePoint" />
            <mxPoint x="426" y="130" as="targetPoint" />
          </mxGeometry>
        </mxCell>
        <mxCell id="rrpXM7m9zSZtKaKZ5XWd-5" value="" style="rounded=0;whiteSpace=wrap;html=1;" vertex="1" parent="1">
          <mxGeometry x="365" y="130" width="120" height="60" as="geometry" />
        </mxCell>
        <mxCell id="rrpXM7m9zSZtKaKZ5XWd-6" value="Material App" style="text;html=1;align=center;verticalAlign=middle;whiteSpace=wrap;rounded=0;" vertex="1" parent="1">
          <mxGeometry x="395" y="145" width="60" height="30" as="geometry" />
        </mxCell>
        <mxCell id="rrpXM7m9zSZtKaKZ5XWd-7" value="" style="endArrow=classic;html=1;rounded=0;" edge="1" parent="1">
          <mxGeometry width="50" height="50" relative="1" as="geometry">
            <mxPoint x="425" y="190" as="sourcePoint" />
            <mxPoint x="425" y="230" as="targetPoint" />
          </mxGeometry>
        </mxCell>
        <mxCell id="rrpXM7m9zSZtKaKZ5XWd-8" value="" style="rounded=0;whiteSpace=wrap;html=1;" vertex="1" parent="1">
          <mxGeometry x="365" y="230" width="120" height="60" as="geometry" />
        </mxCell>
        <mxCell id="rrpXM7m9zSZtKaKZ5XWd-9" value="" style="endArrow=classic;html=1;rounded=0;" edge="1" parent="1">
          <mxGeometry width="50" height="50" relative="1" as="geometry">
            <mxPoint x="425" y="290" as="sourcePoint" />
            <mxPoint x="425" y="330" as="targetPoint" />
          </mxGeometry>
        </mxCell>
        <mxCell id="rrpXM7m9zSZtKaKZ5XWd-10" value="" style="rounded=0;whiteSpace=wrap;html=1;" vertex="1" parent="1">
          <mxGeometry x="365" y="330" width="120" height="60" as="geometry" />
        </mxCell>
        <mxCell id="rrpXM7m9zSZtKaKZ5XWd-12" value="Homepage" style="text;html=1;align=center;verticalAlign=middle;whiteSpace=wrap;rounded=0;" vertex="1" parent="1">
          <mxGeometry x="395" y="245" width="60" height="30" as="geometry" />
        </mxCell>
        <mxCell id="rrpXM7m9zSZtKaKZ5XWd-13" value="Scaffold" style="text;html=1;align=center;verticalAlign=middle;whiteSpace=wrap;rounded=0;" vertex="1" parent="1">
          <mxGeometry x="395" y="345" width="60" height="30" as="geometry" />
        </mxCell>
        <mxCell id="rrpXM7m9zSZtKaKZ5XWd-14" value="" style="endArrow=none;html=1;rounded=0;" edge="1" parent="1">
          <mxGeometry width="50" height="50" relative="1" as="geometry">
            <mxPoint x="424" y="430" as="sourcePoint" />
            <mxPoint x="424" y="390" as="targetPoint" />
          </mxGeometry>
        </mxCell>
        <mxCell id="rrpXM7m9zSZtKaKZ5XWd-15" value="" style="endArrow=none;html=1;rounded=0;" edge="1" parent="1">
          <mxGeometry width="50" height="50" relative="1" as="geometry">
            <mxPoint x="100" y="430" as="sourcePoint" />
            <mxPoint x="640" y="430" as="targetPoint" />
            <Array as="points">
              <mxPoint x="423" y="430" />
            </Array>
          </mxGeometry>
        </mxCell>
        <mxCell id="rrpXM7m9zSZtKaKZ5XWd-16" value="" style="endArrow=none;html=1;rounded=0;" edge="1" parent="1">
          <mxGeometry width="50" height="50" relative="1" as="geometry">
            <mxPoint x="100" y="460" as="sourcePoint" />
            <mxPoint x="100" y="430" as="targetPoint" />
          </mxGeometry>
        </mxCell>
        <mxCell id="rrpXM7m9zSZtKaKZ5XWd-17" value="" style="rounded=0;whiteSpace=wrap;html=1;" vertex="1" parent="1">
          <mxGeometry x="60" y="460" width="80" height="40" as="geometry" />
        </mxCell>
        <mxCell id="rrpXM7m9zSZtKaKZ5XWd-18" value="" style="endArrow=classic;html=1;rounded=0;" edge="1" parent="1">
          <mxGeometry width="50" height="50" relative="1" as="geometry">
            <mxPoint x="99.5" y="500" as="sourcePoint" />
            <mxPoint x="99.5" y="540" as="targetPoint" />
          </mxGeometry>
        </mxCell>
        <mxCell id="rrpXM7m9zSZtKaKZ5XWd-19" value="" style="rounded=0;whiteSpace=wrap;html=1;" vertex="1" parent="1">
          <mxGeometry x="60" y="540" width="80" height="40" as="geometry" />
        </mxCell>
        <mxCell id="rrpXM7m9zSZtKaKZ5XWd-20" value="Appbar" style="text;html=1;align=center;verticalAlign=middle;whiteSpace=wrap;rounded=0;" vertex="1" parent="1">
          <mxGeometry x="70" y="465" width="60" height="30" as="geometry" />
        </mxCell>
        <mxCell id="rrpXM7m9zSZtKaKZ5XWd-21" value="Text" style="text;html=1;align=center;verticalAlign=middle;whiteSpace=wrap;rounded=0;" vertex="1" parent="1">
          <mxGeometry x="69" y="548" width="60" height="30" as="geometry" />
        </mxCell>
        <mxCell id="rrpXM7m9zSZtKaKZ5XWd-23" value="" style="endArrow=none;html=1;rounded=0;" edge="1" parent="1">
          <mxGeometry width="50" height="50" relative="1" as="geometry">
            <mxPoint x="640" y="460" as="sourcePoint" />
            <mxPoint x="640" y="430" as="targetPoint" />
          </mxGeometry>
        </mxCell>
        <mxCell id="rrpXM7m9zSZtKaKZ5XWd-24" value="" style="rounded=0;whiteSpace=wrap;html=1;" vertex="1" parent="1">
          <mxGeometry x="600" y="465" width="80" height="40" as="geometry" />
        </mxCell>
        <mxCell id="rrpXM7m9zSZtKaKZ5XWd-25" value="Center" style="text;html=1;align=center;verticalAlign=middle;whiteSpace=wrap;rounded=0;" vertex="1" parent="1">
          <mxGeometry x="610" y="470" width="60" height="30" as="geometry" />
        </mxCell>
        <mxCell id="rrpXM7m9zSZtKaKZ5XWd-26" value="" style="rounded=0;whiteSpace=wrap;html=1;" vertex="1" parent="1">
          <mxGeometry x="600" y="543" width="80" height="40" as="geometry" />
        </mxCell>
        <mxCell id="rrpXM7m9zSZtKaKZ5XWd-27" value="" style="endArrow=classic;html=1;rounded=0;" edge="1" parent="1">
          <mxGeometry width="50" height="50" relative="1" as="geometry">
            <mxPoint x="639.5" y="505" as="sourcePoint" />
            <mxPoint x="639.5" y="545" as="targetPoint" />
          </mxGeometry>
        </mxCell>
        <mxCell id="rrpXM7m9zSZtKaKZ5XWd-28" value="Column" style="text;html=1;align=center;verticalAlign=middle;whiteSpace=wrap;rounded=0;" vertex="1" parent="1">
          <mxGeometry x="610" y="548" width="60" height="30" as="geometry" />
        </mxCell>
        <mxCell id="rrpXM7m9zSZtKaKZ5XWd-31" value="" style="endArrow=none;html=1;rounded=0;" edge="1" parent="1">
          <mxGeometry width="50" height="50" relative="1" as="geometry">
            <mxPoint x="162" y="644" as="sourcePoint" />
            <mxPoint x="642" y="644" as="targetPoint" />
          </mxGeometry>
        </mxCell>
        <mxCell id="rrpXM7m9zSZtKaKZ5XWd-32" value="" style="endArrow=classic;startArrow=classic;html=1;rounded=0;" edge="1" parent="1">
          <mxGeometry width="50" height="50" relative="1" as="geometry">
            <mxPoint x="642" y="660" as="sourcePoint" />
            <mxPoint x="641.5" y="582" as="targetPoint" />
          </mxGeometry>
        </mxCell>
        <mxCell id="rrpXM7m9zSZtKaKZ5XWd-35" style="edgeStyle=orthogonalEdgeStyle;rounded=0;orthogonalLoop=1;jettySize=auto;html=1;exitX=1;exitY=0.5;exitDx=0;exitDy=0;entryX=1;entryY=0.5;entryDx=0;entryDy=0;" edge="1" parent="1" source="rrpXM7m9zSZtKaKZ5XWd-33" target="rrpXM7m9zSZtKaKZ5XWd-34">
          <mxGeometry relative="1" as="geometry" />
        </mxCell>
        <mxCell id="rrpXM7m9zSZtKaKZ5XWd-33" value="" style="rounded=0;whiteSpace=wrap;html=1;" vertex="1" parent="1">
          <mxGeometry x="600" y="670" width="90" height="40" as="geometry" />
        </mxCell>
        <mxCell id="rrpXM7m9zSZtKaKZ5XWd-34" value="Elevated Button" style="text;html=1;align=center;verticalAlign=middle;whiteSpace=wrap;rounded=0;" vertex="1" parent="1">
          <mxGeometry x="614" y="675" width="60" height="30" as="geometry" />
        </mxCell>
        <mxCell id="rrpXM7m9zSZtKaKZ5XWd-37" value="" style="endArrow=classic;html=1;rounded=0;" edge="1" parent="1">
          <mxGeometry width="50" height="50" relative="1" as="geometry">
            <mxPoint x="455" y="646" as="sourcePoint" />
            <mxPoint x="455" y="686" as="targetPoint" />
          </mxGeometry>
        </mxCell>
        <mxCell id="rrpXM7m9zSZtKaKZ5XWd-39" value="" style="endArrow=classic;html=1;rounded=0;" edge="1" parent="1">
          <mxGeometry width="50" height="50" relative="1" as="geometry">
            <mxPoint x="310" y="650" as="sourcePoint" />
            <mxPoint x="310" y="690" as="targetPoint" />
          </mxGeometry>
        </mxCell>
        <mxCell id="rrpXM7m9zSZtKaKZ5XWd-40" value="" style="endArrow=classic;html=1;rounded=0;" edge="1" parent="1">
          <mxGeometry width="50" height="50" relative="1" as="geometry">
            <mxPoint x="163" y="646" as="sourcePoint" />
            <mxPoint x="163" y="686" as="targetPoint" />
          </mxGeometry>
        </mxCell>
        <mxCell id="rrpXM7m9zSZtKaKZ5XWd-41" value="" style="rounded=0;whiteSpace=wrap;html=1;" vertex="1" parent="1">
          <mxGeometry x="430" y="690" width="85" height="40" as="geometry" />
        </mxCell>
        <mxCell id="rrpXM7m9zSZtKaKZ5XWd-42" value="" style="rounded=0;whiteSpace=wrap;html=1;" vertex="1" parent="1">
          <mxGeometry x="270" y="690" width="80" height="40" as="geometry" />
        </mxCell>
        <mxCell id="rrpXM7m9zSZtKaKZ5XWd-43" value="" style="rounded=0;whiteSpace=wrap;html=1;" vertex="1" parent="1">
          <mxGeometry x="130" y="690" width="70" height="40" as="geometry" />
        </mxCell>
        <mxCell id="rrpXM7m9zSZtKaKZ5XWd-44" value="Text" style="text;html=1;align=center;verticalAlign=middle;whiteSpace=wrap;rounded=0;" vertex="1" parent="1">
          <mxGeometry x="135" y="695" width="60" height="30" as="geometry" />
        </mxCell>
        <mxCell id="rrpXM7m9zSZtKaKZ5XWd-45" value="Text" style="text;html=1;align=center;verticalAlign=middle;whiteSpace=wrap;rounded=0;" vertex="1" parent="1">
          <mxGeometry x="280" y="695" width="60" height="30" as="geometry" />
        </mxCell>
        <mxCell id="rrpXM7m9zSZtKaKZ5XWd-46" value="Sized boxed" style="text;html=1;align=center;verticalAlign=middle;whiteSpace=wrap;rounded=0;" vertex="1" parent="1">
          <mxGeometry x="443" y="695" width="60" height="30" as="geometry" />
        </mxCell>
        <mxCell id="rrpXM7m9zSZtKaKZ5XWd-47" value="" style="endArrow=classic;html=1;rounded=0;" edge="1" parent="1">
          <mxGeometry width="50" height="50" relative="1" as="geometry">
            <mxPoint x="644.5" y="710" as="sourcePoint" />
            <mxPoint x="644.5" y="750" as="targetPoint" />
          </mxGeometry>
        </mxCell>
        <mxCell id="rrpXM7m9zSZtKaKZ5XWd-48" value="" style="rounded=0;whiteSpace=wrap;html=1;" vertex="1" parent="1">
          <mxGeometry x="595" y="750" width="100" height="50" as="geometry" />
        </mxCell>
        <mxCell id="rrpXM7m9zSZtKaKZ5XWd-49" value="" style="endArrow=classic;html=1;rounded=0;" edge="1" parent="1">
          <mxGeometry width="50" height="50" relative="1" as="geometry">
            <mxPoint x="644.5" y="800" as="sourcePoint" />
            <mxPoint x="644.5" y="840" as="targetPoint" />
          </mxGeometry>
        </mxCell>
        <mxCell id="rrpXM7m9zSZtKaKZ5XWd-50" value="" style="rounded=0;whiteSpace=wrap;html=1;" vertex="1" parent="1">
          <mxGeometry x="593" y="840" width="97" height="40" as="geometry" />
        </mxCell>
        <mxCell id="rrpXM7m9zSZtKaKZ5XWd-51" value="" style="endArrow=classic;html=1;rounded=0;" edge="1" parent="1">
          <mxGeometry width="50" height="50" relative="1" as="geometry">
            <mxPoint x="643.5" y="890" as="sourcePoint" />
            <mxPoint x="643.5" y="930" as="targetPoint" />
          </mxGeometry>
        </mxCell>
        <mxCell id="rrpXM7m9zSZtKaKZ5XWd-53" value="" style="rounded=0;whiteSpace=wrap;html=1;" vertex="1" parent="1">
          <mxGeometry x="595" y="930" width="105" height="40" as="geometry" />
        </mxCell>
        <mxCell id="rrpXM7m9zSZtKaKZ5XWd-54" value="Text to go Details" style="text;html=1;align=center;verticalAlign=middle;whiteSpace=wrap;rounded=0;" vertex="1" parent="1">
          <mxGeometry x="614" y="760" width="60" height="30" as="geometry" />
        </mxCell>
        <mxCell id="rrpXM7m9zSZtKaKZ5XWd-55" value="Navigator" style="text;html=1;align=center;verticalAlign=middle;whiteSpace=wrap;rounded=0;" vertex="1" parent="1">
          <mxGeometry x="612" y="845" width="60" height="30" as="geometry" />
        </mxCell>
        <mxCell id="rrpXM7m9zSZtKaKZ5XWd-56" value="Scaffold" style="text;html=1;align=center;verticalAlign=middle;whiteSpace=wrap;rounded=0;" vertex="1" parent="1">
          <mxGeometry x="616" y="939" width="60" height="30" as="geometry" />
        </mxCell>
        <mxCell id="rrpXM7m9zSZtKaKZ5XWd-57" value="" style="endArrow=none;html=1;rounded=0;" edge="1" parent="1">
          <mxGeometry width="50" height="50" relative="1" as="geometry">
            <mxPoint x="135" y="990" as="sourcePoint" />
            <mxPoint x="645" y="990" as="targetPoint" />
          </mxGeometry>
        </mxCell>
        <mxCell id="rrpXM7m9zSZtKaKZ5XWd-58" value="" style="endArrow=none;html=1;rounded=0;" edge="1" parent="1">
          <mxGeometry width="50" height="50" relative="1" as="geometry">
            <mxPoint x="647" y="990" as="sourcePoint" />
            <mxPoint x="647" y="969" as="targetPoint" />
          </mxGeometry>
        </mxCell>
        <mxCell id="rrpXM7m9zSZtKaKZ5XWd-59" value="" style="rounded=0;whiteSpace=wrap;html=1;" vertex="1" parent="1">
          <mxGeometry x="380" y="1010" width="80" height="30" as="geometry" />
        </mxCell>
        <mxCell id="rrpXM7m9zSZtKaKZ5XWd-60" value="" style="rounded=0;whiteSpace=wrap;html=1;" vertex="1" parent="1">
          <mxGeometry x="125" y="1015" width="80" height="30" as="geometry" />
        </mxCell>
        <mxCell id="rrpXM7m9zSZtKaKZ5XWd-62" value="Appbar" style="text;html=1;align=center;verticalAlign=middle;whiteSpace=wrap;rounded=0;" vertex="1" parent="1">
          <mxGeometry x="135" y="1015" width="60" height="30" as="geometry" />
        </mxCell>
        <mxCell id="rrpXM7m9zSZtKaKZ5XWd-63" value="Center" style="text;html=1;align=center;verticalAlign=middle;whiteSpace=wrap;rounded=0;" vertex="1" parent="1">
          <mxGeometry x="390" y="1010" width="60" height="30" as="geometry" />
        </mxCell>
        <mxCell id="rrpXM7m9zSZtKaKZ5XWd-64" value="" style="endArrow=none;html=1;rounded=0;" edge="1" parent="1">
          <mxGeometry width="50" height="50" relative="1" as="geometry">
            <mxPoint x="424" y="1010" as="sourcePoint" />
            <mxPoint x="424" y="990" as="targetPoint" />
          </mxGeometry>
        </mxCell>
        <mxCell id="rrpXM7m9zSZtKaKZ5XWd-65" value="" style="endArrow=none;html=1;rounded=0;" edge="1" parent="1">
          <mxGeometry width="50" height="50" relative="1" as="geometry">
            <mxPoint x="135" y="1010" as="sourcePoint" />
            <mxPoint x="135" y="990" as="targetPoint" />
          </mxGeometry>
        </mxCell>
        <mxCell id="rrpXM7m9zSZtKaKZ5XWd-68" value="" style="endArrow=none;html=1;rounded=0;" edge="1" parent="1">
          <mxGeometry width="50" height="50" relative="1" as="geometry">
            <mxPoint x="124" y="1090" as="sourcePoint" />
            <mxPoint x="530" y="1090" as="targetPoint" />
          </mxGeometry>
        </mxCell>
        <mxCell id="rrpXM7m9zSZtKaKZ5XWd-69" value="" style="endArrow=classic;html=1;rounded=0;" edge="1" parent="1">
          <mxGeometry width="50" height="50" relative="1" as="geometry">
            <mxPoint x="139" y="1045" as="sourcePoint" />
            <mxPoint x="139" y="1085" as="targetPoint" />
          </mxGeometry>
        </mxCell>
        <mxCell id="rrpXM7m9zSZtKaKZ5XWd-70" value="" style="endArrow=classic;html=1;rounded=0;" edge="1" parent="1">
          <mxGeometry width="50" height="50" relative="1" as="geometry">
            <mxPoint x="425" y="1040" as="sourcePoint" />
            <mxPoint x="425" y="1090" as="targetPoint" />
          </mxGeometry>
        </mxCell>
        <mxCell id="rrpXM7m9zSZtKaKZ5XWd-71" value="" style="endArrow=classic;html=1;rounded=0;" edge="1" parent="1">
          <mxGeometry width="50" height="50" relative="1" as="geometry">
            <mxPoint x="530" y="1090" as="sourcePoint" />
            <mxPoint x="530" y="1130" as="targetPoint" />
          </mxGeometry>
        </mxCell>
        <mxCell id="rrpXM7m9zSZtKaKZ5XWd-72" value="" style="endArrow=classic;html=1;rounded=0;" edge="1" parent="1">
          <mxGeometry width="50" height="50" relative="1" as="geometry">
            <mxPoint x="309.5" y="1090" as="sourcePoint" />
            <mxPoint x="309.5" y="1130" as="targetPoint" />
          </mxGeometry>
        </mxCell>
        <mxCell id="rrpXM7m9zSZtKaKZ5XWd-73" value="" style="endArrow=classic;html=1;rounded=0;" edge="1" parent="1">
          <mxGeometry width="50" height="50" relative="1" as="geometry">
            <mxPoint x="125" y="1090" as="sourcePoint" />
            <mxPoint x="125" y="1130" as="targetPoint" />
          </mxGeometry>
        </mxCell>
        <mxCell id="rrpXM7m9zSZtKaKZ5XWd-74" value="" style="rounded=0;whiteSpace=wrap;html=1;" vertex="1" parent="1">
          <mxGeometry x="80" y="1130" width="91" height="40" as="geometry" />
        </mxCell>
        <mxCell id="rrpXM7m9zSZtKaKZ5XWd-75" value="" style="rounded=0;whiteSpace=wrap;html=1;" vertex="1" parent="1">
          <mxGeometry x="267.5" y="1130" width="85" height="40" as="geometry" />
        </mxCell>
        <mxCell id="rrpXM7m9zSZtKaKZ5XWd-76" value="" style="rounded=0;whiteSpace=wrap;html=1;" vertex="1" parent="1">
          <mxGeometry x="480" y="1130" width="100" height="40" as="geometry" />
        </mxCell>
        <mxCell id="rrpXM7m9zSZtKaKZ5XWd-77" value="Text" style="text;html=1;align=center;verticalAlign=middle;whiteSpace=wrap;rounded=0;" vertex="1" parent="1">
          <mxGeometry x="96" y="1135" width="60" height="30" as="geometry" />
        </mxCell>
        <mxCell id="rrpXM7m9zSZtKaKZ5XWd-78" value="Sizedboxed" style="text;html=1;align=center;verticalAlign=middle;whiteSpace=wrap;rounded=0;" vertex="1" parent="1">
          <mxGeometry x="280" y="1135" width="60" height="30" as="geometry" />
        </mxCell>
        <mxCell id="rrpXM7m9zSZtKaKZ5XWd-79" value="Elevated" style="text;html=1;align=center;verticalAlign=middle;whiteSpace=wrap;rounded=0;" vertex="1" parent="1">
          <mxGeometry x="503" y="1135" width="60" height="30" as="geometry" />
        </mxCell>
        <mxCell id="rrpXM7m9zSZtKaKZ5XWd-80" value="" style="endArrow=classic;html=1;rounded=0;" edge="1" parent="1">
          <mxGeometry width="50" height="50" relative="1" as="geometry">
            <mxPoint x="532.5" y="1170" as="sourcePoint" />
            <mxPoint x="532.5" y="1210" as="targetPoint" />
          </mxGeometry>
        </mxCell>
        <mxCell id="rrpXM7m9zSZtKaKZ5XWd-81" value="" style="rounded=0;whiteSpace=wrap;html=1;" vertex="1" parent="1">
          <mxGeometry x="480" y="1210" width="110" height="40" as="geometry" />
        </mxCell>
        <mxCell id="rrpXM7m9zSZtKaKZ5XWd-82" value="Navigator" style="text;html=1;align=center;verticalAlign=middle;whiteSpace=wrap;rounded=0;" vertex="1" parent="1">
          <mxGeometry x="505" y="1215" width="60" height="30" as="geometry" />
        </mxCell>
      </root>
    </mxGraphModel>
  </diagram>
</mxfile>
